<svg id="Logo" xmlns="http://www.w3.org/2000/svg" xmlns:xlink="http://www.w3.org/1999/xlink" width="94.117" height="94.117" viewBox="0 0 94.117 94.117">
  <defs>
    <clipPath id="clip-path">
      <path id="Rechteck_14" data-name="Rechteck 14" d="M0,0H94.117V94.117H0Z" fill="none"/>
    </clipPath>
  </defs>
  <g id="Gruppe_1" data-name="Gruppe 1" clip-path="url(#clip-path)">
    <path id="Pfad_1" data-name="Pfad 1" d="M93.316,46.658A46.512,46.512,0,1,1,89.65,28.5a46.512,46.512,0,0,1,3.667,18.162" transform="translate(0.254 0.45)" fill="#252a2e"/>
    <path id="Pfad_2" data-name="Pfad 2" d="M4.4,8.6,0,1.942,2.937,0l.756,1.143L1.974,2.28,3.045,3.9l1.6-1.06.717,1.084-1.6,1.06L4.877,6.668,6.612,5.52l.745,1.127Z" transform="translate(22.303 9.911)" fill="#fff"/>
    <path id="Rechteck_11" data-name="Rechteck 11" d="M0,.689,1.355,0,4.972,7.112,3.618,7.8Z" transform="translate(27.147 8.187)" fill="#fff"/>
    <path id="Pfad_3" data-name="Pfad 3" d="M5.186,7.971,2.643,4.66,4,8.4l-1.278.464L0,1.365,1.307.891,3.812,4.13,2.482.464,3.76,0,6.483,7.5Z" transform="translate(30.658 5.801)" fill="#fff"/>
    <path id="Pfad_4" data-name="Pfad 4" d="M2.9,1.578,4.151,8.069,2.7,8.35,1.447,1.858.259,2.087,0,.741,3.85,0l.259,1.345Z" transform="translate(36.675 4.409)" fill="#fff"/>
    <path id="Pfad_5" data-name="Pfad 5" d="M4.046,3.576a1.471,1.471,0,0,1-.1.221,1.23,1.23,0,0,1-.123.182.92.92,0,0,1-.138.138.615.615,0,0,1-.146.088l1.174,3.66-1.507.083-.982-3.27-.519.028.184,3.314L.441,8.1,0,.136,2.4,0a2.015,2.015,0,0,1,.439.022,1.6,1.6,0,0,1,.392.116,1.279,1.279,0,0,1,.326.208,1.138,1.138,0,0,1,.241.3,1.826,1.826,0,0,1,.131.281,3.046,3.046,0,0,1,.108.359c.032.132.059.276.08.432s.038.322.047.5c.009.157.012.3.01.436s-.009.256-.019.368-.025.214-.043.306a2.232,2.232,0,0,1-.062.248M2.62,1.7a.675.675,0,0,0-.061-.149.448.448,0,0,0-.092-.115.36.36,0,0,0-.126-.072.43.43,0,0,0-.161-.019l-.659.037.116,2.1.1-.006.228-.014.238-.016c.068-.005.118-.01.13-.013A.553.553,0,0,0,2.461,3.4a.367.367,0,0,0,.1-.058.3.3,0,0,0,.066-.079.337.337,0,0,0,.038-.1.684.684,0,0,0,.03-.14c.007-.056.012-.119.015-.186s0-.136,0-.2,0-.134-.007-.194-.009-.141-.015-.215-.014-.148-.021-.217-.015-.133-.023-.185S2.627,1.728,2.62,1.7" transform="translate(42.672 3.974)" fill="#fff"/>
    <path id="Pfad_6" data-name="Pfad 6" d="M1.452,7.951,0,7.8,2.128,0,4.167.207l.378,8.057L3.074,8.115,3.009,6.17l-1.084-.11ZM2.939,2.6c0-.105,0-.234.009-.367s.012-.271.018-.4.013-.237.017-.317.008-.13.008-.13l-.021.127c-.013.079-.032.189-.053.311s-.045.259-.069.391-.047.259-.068.365c0,.01-.039.159-.095.378s-.13.506-.2.793l-.2.785L2.184,4.9,3,4.982s0-.146-.01-.366-.014-.513-.022-.808-.016-.591-.021-.815-.009-.378-.008-.388" transform="translate(48.184 4.05)" fill="#fff"/>
    <path id="Pfad_7" data-name="Pfad 7" d="M3.847,7a2.2,2.2,0,0,1-.373.569,1.5,1.5,0,0,1-.5.358,1.69,1.69,0,0,1-.646.132,2.966,2.966,0,0,1-.807-.108,2.821,2.821,0,0,1-.691-.272A1.714,1.714,0,0,1,.365,7.3,1.463,1.463,0,0,1,.1,6.833,1.859,1.859,0,0,1,0,6.287,4.285,4.285,0,0,1,.024,5.7c.021-.221.055-.463.1-.716s.1-.517.153-.781S.4,3.674.464,3.42s.132-.491.2-.707.128-.414.2-.6.14-.372.218-.556.165-.367.263-.562A2.04,2.04,0,0,1,1.723.446,1.486,1.486,0,0,1,2.232.113,1.769,1.769,0,0,1,2.874,0a3.066,3.066,0,0,1,.783.111A2.629,2.629,0,0,1,4.4.42a1.532,1.532,0,0,1,.473.457,1.534,1.534,0,0,1,.225.6,2.56,2.56,0,0,1,0,.731c-.012.095-.026.195-.043.3s-.036.21-.058.32-.046.223-.072.338-.055.232-.086.351L3.47,3.153c.023-.089.046-.183.067-.279s.041-.2.059-.3.034-.2.048-.3.025-.2.033-.306a.528.528,0,0,0-.012-.18.456.456,0,0,0-.072-.156.481.481,0,0,0-.129-.122.619.619,0,0,0-.184-.079.764.764,0,0,0-.22-.027.5.5,0,0,0-.184.04.488.488,0,0,0-.15.1.708.708,0,0,0-.119.162,2.681,2.681,0,0,0-.14.316c-.048.127-.1.276-.152.449s-.11.369-.172.589-.127.466-.2.737c-.055.211-.11.424-.161.635s-.1.417-.143.613-.08.382-.109.55-.05.319-.06.446a.746.746,0,0,0,.021.243.514.514,0,0,0,.232.311.668.668,0,0,0,.181.076.709.709,0,0,0,.2.025.47.47,0,0,0,.353-.168A.782.782,0,0,0,2.594,6.3c.038-.1.075-.2.11-.3s.068-.206.1-.3.056-.186.078-.262.039-.14.051-.183l1.374.36c-.017.065-.041.155-.07.261s-.064.227-.1.355-.083.263-.131.394-.1.261-.153.379" transform="translate(54.139 5.165)" fill="#fff"/>
    <path id="Pfad_8" data-name="Pfad 8" d="M2.392,8.36,3.736,5.29,2.673,4.825,1.329,7.895,0,7.312,3.2,0,4.531.582,3.195,3.633,4.258,4.1,5.594,1.047l1.338.586L3.73,8.946Z" transform="translate(58.832 6.651)" fill="#fff"/>
    <path id="Pfad_9" data-name="Pfad 9" d="M4.769,2.591l-3.515,5.6L0,7.406,3.515,1.8,2.489,1.161,3.218,0,6.54,2.084,5.811,3.245Z" transform="translate(64.547 9.349)" fill="#fff"/>
    <path id="Pfad_10" data-name="Pfad 10" d="M2.2,8.136l1.79-2.83-.98-.62-1.79,2.83L0,6.741,4.264,0,5.489.775,3.71,3.588l.98.62L6.469,1.395l1.233.78L3.438,8.916Z" transform="translate(22.154 76.099)" fill="#fff"/>
    <path id="Rechteck_12" data-name="Rechteck 12" d="M0,7.185,3.469,0,4.838.661,1.368,7.846Z" transform="translate(27.485 78.798)" fill="#fff"/>
    <path id="Pfad_11" data-name="Pfad 11" d="M0,7.512,2.693,0,4.067.493,1.83,6.733l1.986.712L3.36,8.716Z" transform="translate(30.743 79.974)" fill="#fff"/>
    <path id="Pfad_12" data-name="Pfad 12" d="M2.193,8.274,0,7.814,1.639,0,3.656.423A3.47,3.47,0,0,1,4.2.58,1.809,1.809,0,0,1,4.613.8a1.364,1.364,0,0,1,.3.294,1.734,1.734,0,0,1,.211.385A1.488,1.488,0,0,1,5.2,2a5.927,5.927,0,0,1-.047.755c-.032.279-.079.581-.134.89s-.118.624-.182.929c-.085.4-.167.781-.249,1.126s-.164.659-.249.937a5.9,5.9,0,0,1-.262.719,1.857,1.857,0,0,1-.29.473,1.689,1.689,0,0,1-.283.256,1.28,1.28,0,0,1-.344.173,1.471,1.471,0,0,1-.429.069,2.391,2.391,0,0,1-.539-.056M3.469,4.289c.021-.1.053-.26.089-.452s.077-.415.115-.634.072-.434.1-.612A2.731,2.731,0,0,0,3.8,2.2a.867.867,0,0,0-.034-.225.5.5,0,0,0-.085-.167A.447.447,0,0,0,3.55,1.7a.662.662,0,0,0-.187-.067L2.795,1.51,1.646,6.984l.627.131a.631.631,0,0,0,.179.014.419.419,0,0,0,.155-.042.436.436,0,0,0,.131-.1.706.706,0,0,0,.108-.168,3.931,3.931,0,0,0,.142-.464c.058-.22.124-.488.188-.761s.127-.547.178-.78.093-.422.114-.522" transform="translate(36.009 81.418)" fill="#fff"/>
    <path id="Pfad_13" data-name="Pfad 13" d="M0,7.961.561,0,4.072.247l-.1,1.367L1.921,1.47,1.785,3.4,3.7,3.54l-.091,1.3L1.693,4.7,1.551,6.717l2.075.146L3.532,8.21Z" transform="translate(42.063 82.363)" fill="#fff"/>
    <path id="Pfad_14" data-name="Pfad 14" d="M2.437,8.141A3.35,3.35,0,0,1,1.6,8.1,1.837,1.837,0,0,1,.966,7.86a1.3,1.3,0,0,1-.419-.418,1.5,1.5,0,0,1-.2-.585C.33,6.766.321,6.691.313,6.622S.3,6.492.3,6.426.287,6.292.282,6.209s-.01-.179-.017-.3l1.388-.086c.006.092.012.179.018.258s.012.15.018.212.011.114.016.154.009.069.012.084a.565.565,0,0,0,.068.174.446.446,0,0,0,.121.132.505.505,0,0,0,.178.079.8.8,0,0,0,.238.017.762.762,0,0,0,.255-.056.486.486,0,0,0,.18-.131.508.508,0,0,0,.1-.2.835.835,0,0,0,.023-.268,2.219,2.219,0,0,0-.068-.447,1.431,1.431,0,0,0-.156-.368,1.835,1.835,0,0,0-.265-.335A4.192,4.192,0,0,0,2,4.781l-.132-.1-.2-.161-.226-.177-.2-.151a5.422,5.422,0,0,1-.5-.431A2.532,2.532,0,0,1,.364,3.3,2.159,2.159,0,0,1,.12,2.746,3.26,3.26,0,0,1,0,2.038a2.162,2.162,0,0,1,.09-.795A1.659,1.659,0,0,1,.456.617,1.767,1.767,0,0,1,1.066.194,2.523,2.523,0,0,1,1.9.006a2.465,2.465,0,0,1,.828.076,1.559,1.559,0,0,1,.99.805,2.23,2.23,0,0,1,.208.627c.01.042.021.1.033.166s.022.141.033.218.02.156.028.23.014.143.018.2l-1.4.087c0-.05-.007-.1-.011-.149s-.01-.1-.016-.153-.014-.106-.022-.163-.019-.117-.03-.182A.918.918,0,0,0,2.5,1.556.479.479,0,0,0,2.389,1.4a.422.422,0,0,0-.171-.093.727.727,0,0,0-.244-.021.835.835,0,0,0-.253.05.438.438,0,0,0-.174.119.454.454,0,0,0-.1.193.907.907,0,0,0-.019.273,1.242,1.242,0,0,0,.084.381,1.444,1.444,0,0,0,.187.331,2.371,2.371,0,0,0,.27.3c.1.1.213.191.332.287l.187.148.218.173.208.166.157.128a5.849,5.849,0,0,1,.506.466,2.813,2.813,0,0,1,.375.486,2.338,2.338,0,0,1,.245.567,3.315,3.315,0,0,1,.115.71,2.288,2.288,0,0,1-.092.837,1.688,1.688,0,0,1-.368.64,1.757,1.757,0,0,1-.607.422,2.435,2.435,0,0,1-.809.182" transform="translate(47.062 82.413)" fill="#fff"/>
    <path id="Pfad_15" data-name="Pfad 15" d="M4.176,8.11,3.5,4.83,2.36,5.066l.68,3.28L1.62,8.64,0,.826,1.42.532,2.1,3.793l1.136-.236L2.555.3,3.985,0,5.606,7.813Z" transform="translate(51.927 81.427)" fill="#fff"/>
    <path id="Pfad_16" data-name="Pfad 16" d="M2.693,8.7,0,1.188,3.314,0l.462,1.29-1.939.695.654,1.827L4.3,3.163l.439,1.224L2.93,5.035l.681,1.9,1.958-.7L6.025,7.5Z" transform="translate(56.983 79.911)" fill="#fff"/>
    <path id="Rechteck_13" data-name="Rechteck 13" d="M0,.661,1.368,0,4.838,7.185l-1.368.661Z" transform="translate(61.259 78.786)" fill="#fff"/>
    <path id="Pfad_17" data-name="Pfad 17" d="M8.053,7.384l-2.712-4.1L7.328,7.865l-1.075.713-3.448-3.6L5.529,9.059,4.412,9.8,0,3.151,1.625,2.073,5.164,5.761,3.183,1.039,4.749,0,9.161,6.648Z" transform="translate(63.674 75.2)" fill="#fff"/>
    <path id="Pfad_18" data-name="Pfad 18" d="M62.982,31.491a31.393,31.393,0,1,1-2.475-12.258,31.392,31.392,0,0,1,2.475,12.258" transform="translate(15.421 15.51)" fill="#fff"/>
    <path id="Pfad_19" data-name="Pfad 19" d="M35.475,35.022l-1.526,6.224L15.507,42.361V23.946H28.867l.619,5.523h2.426v-14H29.381l-.514,5.9-13.361-.1V3.888l16.456,1.07V9.81H34.6l1.16-9.6L0,0V3.044l5.169.24.385,19.6L5.169,42.877,2,43.145V46.1H36.71l1.477-11.076Z" transform="translate(27.892 24.531)" fill="#7bae2b"/>
  </g>
</svg>
