<svg id="Original" xmlns="http://www.w3.org/2000/svg" xmlns:xlink="http://www.w3.org/1999/xlink" width="244" height="31.724" viewBox="0 0 244 31.724">
  <defs>
    <linearGradient id="linear-gradient" x1="0.218" y1="1.3" x2="0.969" y2="-0.056" gradientUnits="objectBoundingBox">
      <stop offset="0" stop-color="#5ebfc0"/>
      <stop offset="0.5" stop-color="#43b59b"/>
      <stop offset="1" stop-color="#3a9646"/>
    </linearGradient>
  </defs>
  <g id="Logo_2" data-name="Logo 2">
    <path id="Pfad_118" data-name="Pfad 118" d="M39.54,51.11v5.533L38.393,55.5A13.162,13.162,0,0,1,24.68,58.581a13.12,13.12,0,0,0,10.477-6.32l-1.15-1.15Z" transform="translate(-15.971 -33.074)" fill="url(#linear-gradient)"/>
    <path id="Pfad_119" data-name="Pfad 119" d="M22.422,3.846l-2.71,2.71-.773.773a8.208,8.208,0,1,0-6.3,14A8.247,8.247,0,0,1,8.681,25.5,13.141,13.141,0,0,1,0,13.134,13.794,13.794,0,0,1,.088,11.6,13.138,13.138,0,0,1,12.351.021C12.619,0,12.877,0,13.134,0a13.1,13.1,0,0,1,9.288,3.846Z" transform="translate(0 0)" fill="#fff"/>
    <path id="Pfad_120" data-name="Pfad 120" d="M91.838,15.043V26.557H86.767V16.066c0-2.3-.42-4.655-3.529-4.655-2.41,0-3.79,1.708-3.79,4.686V26.557H74.37V1.15h5.071V7.8a7.111,7.111,0,0,1,4.143-1.179,8.217,8.217,0,0,1,5.879,2.2A8.416,8.416,0,0,1,91.838,15.043Z" transform="translate(-48.126 -0.744)" fill="#fff"/>
    <path id="Pfad_121" data-name="Pfad 121" d="M146.47,17.119v1.214a8.384,8.384,0,0,0-5.325-1.694,9.99,9.99,0,0,0-7.209,2.95A10.646,10.646,0,0,0,131,27.144a9.973,9.973,0,0,0,10.269,9.881,7.968,7.968,0,0,0,5.2-1.764v1.33h5.071V17.119Zm-5.24,15.125a5.41,5.41,0,0,1,0-10.809,5.1,5.1,0,0,1,3.825,1.6,5.586,5.586,0,0,1,1.468,3.857,5.332,5.332,0,0,1-5.293,5.357Z" transform="translate(-84.769 -10.767)" fill="#fff"/>
    <path id="Pfad_122" data-name="Pfad 122" d="M205.788,16.53v5.191l-.847.028c-2.354.078-3.5,1.369-3.5,3.949V36.51H196.37V17.049h4.849v.515a7.668,7.668,0,0,1,3.649-1Z" transform="translate(-127.075 -10.697)" fill="#fff"/>
    <path id="Pfad_123" data-name="Pfad 123" d="M240.585,7.133v4.785h-2.908V26.583h-5.071V11.918h-2.4V7.133h2.4V1.19h5.071V7.133Z" transform="translate(-148.973 -0.77)" fill="#fff"/>
    <path id="Pfad_124" data-name="Pfad 124" d="M273.937,16.669A9.528,9.528,0,0,0,267.1,19.58a10.533,10.533,0,0,0-2.947,7.439,10.177,10.177,0,0,0,2.88,6.952,9.687,9.687,0,0,0,7,3.063,9.948,9.948,0,0,0,9.32-6.574l.116-.307h-5.293a4.863,4.863,0,0,1-4.023,2.1,5.033,5.033,0,0,1-4.587-3.077h14.179l.116-.738a10.937,10.937,0,0,0,.106-1.8,9.909,9.909,0,0,0-10.029-9.969Zm-4.549,8.212a4.969,4.969,0,0,1,4.633-3.426,4.919,4.919,0,0,1,4.7,3.426Z" transform="translate(-170.935 -10.786)" fill="#fff"/>
    <path id="Pfad_125" data-name="Pfad 125" d="M340.713,37.481h-6.006l-.261-.374-3.652-5.251L327.225,37.1l-.261.381H320.99l.921-1.366,5.8-8.579L322.137,19.4,321.2,18.03h6.151l.261.388,3.169,4.725,3.141-4.725.261-.388h6.13l-.91,1.362-5.456,8.137,5.837,8.586Z" transform="translate(-207.719 -11.668)" fill="#fff"/>
    <path id="Pfad_126" data-name="Pfad 126" d="M394.276,16.668a8.437,8.437,0,0,0-5.484,1.906V17.137H384V42.509h5.081V35.36a8.85,8.85,0,0,0,5.42,1.687,9.683,9.683,0,0,0,7-2.932,9.99,9.99,0,0,0,2.823-7.019C404.322,21.153,400.007,16.668,394.276,16.668Zm-.127,15.594a5.227,5.227,0,0,1-5.131-5.42,5.275,5.275,0,0,1,5-5.389,5.429,5.429,0,0,1,5.23,5.452A5.179,5.179,0,0,1,394.149,32.262Z" transform="translate(-248.493 -10.785)" fill="#fff"/>
    <path id="Pfad_127" data-name="Pfad 127" d="M458.528,16.668a9.528,9.528,0,0,0-6.842,2.911,10.548,10.548,0,0,0-2.947,7.439,10.177,10.177,0,0,0,2.879,6.952,9.687,9.687,0,0,0,7.008,3.063,9.941,9.941,0,0,0,9.316-6.574l.116-.307h-5.293a4.873,4.873,0,0,1-4.026,2.1,5.029,5.029,0,0,1-4.587-3.077h14.179l.116-.738a10.941,10.941,0,0,0,.145-1.768,9.909,9.909,0,0,0-10.064-10Zm-4.542,8.212a4.979,4.979,0,0,1,4.64-3.426,4.919,4.919,0,0,1,4.7,3.426Z" transform="translate(-290.387 -10.785)" fill="#fff"/>
    <path id="Pfad_128" data-name="Pfad 128" d="M521.515,16.53v5.191l-.843.028c-2.357.078-3.5,1.369-3.5,3.949V36.51H512.1V17.049h4.849v.515a7.629,7.629,0,0,1,3.645-1Z" transform="translate(-331.389 -10.697)" fill="#fff"/>
    <path id="Pfad_129" data-name="Pfad 129" d="M556.308,7.133v4.785H553.4V26.583H548.33V11.918h-2.4V7.133h2.4V1.19H553.4V7.133Z" transform="translate(-353.281 -0.77)" fill="#fff"/>
    <path id="Pfad_130" data-name="Pfad 130" d="M588.361,16.668a9.528,9.528,0,0,0-6.842,2.911,10.537,10.537,0,0,0-2.95,7.439,10.163,10.163,0,0,0,2.883,6.952,9.672,9.672,0,0,0,7,3.063,9.941,9.941,0,0,0,9.32-6.56l.12-.307H592.6a4.866,4.866,0,0,1-4,2.1,5.033,5.033,0,0,1-4.587-3.077h14.175l.116-.738a10.583,10.583,0,0,0,.109-1.8,9.909,9.909,0,0,0-10.054-9.983ZM583.82,24.88a4.894,4.894,0,0,1,9.337,0Z" transform="translate(-374.402 -10.786)" fill="#fff"/>
    <path id="Pfad_131" data-name="Pfad 131" d="M659.411,25.093V36.576h-5.074V26.053a5.733,5.733,0,0,0-.907-3.6A3.059,3.059,0,0,0,650.8,21.43c-2.371,0-3.79,1.715-3.79,4.587V36.576H641.94V17.114h4.849v.78a7.442,7.442,0,0,1,4.365-1.26,8.239,8.239,0,0,1,5.9,2.2A8.522,8.522,0,0,1,659.411,25.093Z" transform="translate(-415.411 -10.762)" fill="#fff"/>
  </g>
</svg>
