<svg id="Ebene_2" data-name="Ebene 2" xmlns="http://www.w3.org/2000/svg" width="175.966" height="60.279" viewBox="0 0 175.966 60.279">
  <g id="Ebene_1" data-name="Ebene 1">
    <path id="Pfad_430" data-name="Pfad 430" d="M77.21,14.9h.323c0,1.431,1.424,2.493,3.255,2.493,1.539,0,2.717-.77,2.717-1.832s-1.3-1.716-2.778-2.309S77.4,11.919,77.4,10.049c0-1.724,1.585-2.909,3.709-2.909,1.939,0,3.432,1.154,3.432,2.709h-.323a2.567,2.567,0,0,0-2.84-2.355c-1.493,0-2.6.816-2.6,1.893,0,1.224,1.4,1.8,2.817,2.355,1.693.646,3.348,1.3,3.348,3.078s-1.6,2.986-3.879,2.986C78.926,17.806,77.21,16.529,77.21,14.9Z" transform="translate(-17.793 -1.645)" fill="#fff"/>
    <path id="Pfad_431" data-name="Pfad 431" d="M90.65,12.4a5.3,5.3,0,0,1,5.487-5.325c2.309,0,4.048,1.254,4.048,2.732h-.323c0-1.254-1.316-2.27-3.224-2.27-2.547.031-4.179,1.893-4.179,4.864s1.639,4.879,4.14,4.879a3.7,3.7,0,0,0,3.348-1.8h.339a4.51,4.51,0,0,1-4.125,2.309A5.318,5.318,0,0,1,90.65,12.4Z" transform="translate(-20.89 -1.631)" fill="#fff"/>
    <path id="Pfad_432" data-name="Pfad 432" d="M116.552,7.31V17.661h-1.739v-5.1h-5.548v5.1H107.51V7.31h1.755v4.956h5.548V7.31Z" transform="translate(-24.775 -1.685)" fill="#fff"/>
    <path id="Pfad_433" data-name="Pfad 433" d="M138.963,7.31,134.43,17.661h-.685l-2.616-5.972-2.616,5.972h-.677L123.31,7.31h1.847l3.725,8.565,2.039-4.664-1.693-3.9h1.847l3.732,8.565,3.755-8.565Z" transform="translate(-28.416 -1.685)" fill="#fff"/>
    <path id="Pfad_434" data-name="Pfad 434" d="M154.935,17.368v.292H147.47V7.31H154.8v.3h-5.556v4.656h4.371v.292h-4.371v4.81Z" transform="translate(-33.984 -1.685)" fill="#fff"/>
    <path id="Pfad_435" data-name="Pfad 435" d="M161.37,7.31h1.755V17.661H161.37Z" transform="translate(-37.187 -1.685)" fill="#fff"/>
    <path id="Pfad_436" data-name="Pfad 436" d="M176.165,7.549l-6.226,9.82h6.21v.292H168v-.239l6.21-9.812h-6v-.3h7.957Z" transform="translate(-38.715 -1.685)" fill="#fff"/>
    <path id="Pfad_437" data-name="Pfad 437" d="M190.385,17.368v.292H182.92V7.31h7.318v.3h-5.564v4.656h4.379v.292h-4.379v4.81Z" transform="translate(-42.153 -1.685)" fill="#fff"/>
    <path id="Pfad_438" data-name="Pfad 438" d="M205.631,17.661h-1.955a2.4,2.4,0,0,1-.723-.854l-1.478-2.855a1.639,1.639,0,0,0-.77-.723h-2.132v4.433H196.82V7.31h4.24c2.162,0,3.848,1.247,3.848,2.955,0,1.539-1.3,2.678-3.124,2.917a2.493,2.493,0,0,1,1.808,1.224l1.162,2.132a3.194,3.194,0,0,0,.877,1.124Zm-7.057-4.733h2.1a2.38,2.38,0,0,0,2.378-2.663,2.373,2.373,0,0,0-2.378-2.655h-2.1Z" transform="translate(-45.356 -1.685)" fill="#fff"/>
    <path id="Pfad_439" data-name="Pfad 439" d="M78,26.54h1.755V36.9H78Z" transform="translate(-17.975 -6.116)" fill="#fff"/>
    <path id="Pfad_440" data-name="Pfad 440" d="M96.114,26.54V36.9H94.336V27.186l-4.156,7.1H89.95l-4.156-7.1V36.9H85.44V26.54h1.97L90.858,32.4l3.455-5.864Z" transform="translate(-19.689 -6.116)" fill="#fff"/>
    <path id="Pfad_441" data-name="Pfad 441" d="M115.175,26.54V36.9h-1.762V27.186l-4.156,7.1h-.231l-4.133-7.1V36.9h-.354V26.54h1.893l3.448,5.864,3.463-5.864Z" transform="translate(-24.091 -6.116)" fill="#fff"/>
    <path id="Pfad_442" data-name="Pfad 442" d="M122.77,31.587a5.456,5.456,0,1,1,5.456,5.325,5.271,5.271,0,0,1-5.456-5.325Zm9.088,0c0-3.032-1.447-5.025-3.632-5.025s-3.64,1.993-3.64,5.025,1.439,5.025,3.64,5.025S131.858,34.619,131.858,31.587Z" transform="translate(-28.291 -5.992)" fill="#fff"/>
    <path id="Pfad_443" data-name="Pfad 443" d="M149.736,34.2c0,1.539-1.416,2.686-3.224,2.686H141.34V26.54h4.733c1.847,0,3.217,1.124,3.217,2.54,0,1.2-.947,2.07-2.424,2.439C148.566,31.827,149.736,32.789,149.736,34.2Zm-6.641-7.365V31.45h2.116a2.07,2.07,0,0,0,2.262-2.262c0-1.439-.77-2.309-2.039-2.309Zm4.825,7.349a2.2,2.2,0,0,0-2.262-2.47h-2.563V36.59h2.786C147.119,36.59,147.92,35.659,147.92,34.182Z" transform="translate(-32.571 -6.116)" fill="#fff"/>
    <path id="Pfad_444" data-name="Pfad 444" d="M156.45,26.54H158.2V36.9H156.45Z" transform="translate(-36.053 -6.116)" fill="#fff"/>
    <path id="Pfad_445" data-name="Pfad 445" d="M171.043,36.59V36.9h-7.1V26.54H165.7V36.59Z" transform="translate(-37.779 -6.116)" fill="#fff"/>
    <path id="Pfad_446" data-name="Pfad 446" d="M177.27,26.54h1.755V36.9H177.27Z" transform="translate(-40.851 -6.116)" fill="#fff"/>
    <path id="Pfad_447" data-name="Pfad 447" d="M192.225,36.59V36.9H184.76V26.54h7.318v.292h-5.556V31.45H190.9v.3h-4.379v4.84Z" transform="translate(-42.577 -6.116)" fill="#fff"/>
    <path id="Pfad_448" data-name="Pfad 448" d="M207.279,26.54V36.9h-.5l-7.765-8.688V36.9h-.354V26.54h1.108l7.157,8.05V26.54Z" transform="translate(-45.78 -6.116)" fill="#fff"/>
    <path id="Pfad_449" data-name="Pfad 449" d="M88.628,45.76V56.111H86.865v-9.7l-4.148,7.1h-.239l-4.156-7.1v9.7H78V45.76h1.939l3.448,5.872L86.85,45.76Z" transform="translate(-17.975 -10.545)" fill="#fff"/>
    <path id="Pfad_450" data-name="Pfad 450" d="M102.443,53.163h-4.9l-1.293,2.947H95.84l4.533-10.351h.685l4.525,10.351H103.72Zm-.131-.292L100,47.545l-2.309,5.325Z" transform="translate(-22.086 -10.545)" fill="#fff"/>
    <path id="Pfad_451" data-name="Pfad 451" d="M121.128,45.76V56.111h-.5l-7.734-8.681v8.681h-.354V45.76h1.108l7.157,8.026V45.76Z" transform="translate(-25.934 -10.545)" fill="#fff"/>
    <path id="Pfad_452" data-name="Pfad 452" d="M128.77,52.016V45.76h1.755v6.487a3.194,3.194,0,0,0,3.371,3.448,3.144,3.144,0,0,0,3.286-3.448V45.76h.354v6.534c0,2.378-1.539,3.963-4.156,3.963S128.77,54.571,128.77,52.016Z" transform="translate(-29.674 -10.545)" fill="#fff"/>
    <path id="Pfad_453" data-name="Pfad 453" d="M146.825,46.052v4.81h4.233v.292h-4.233v4.956H145.07V45.76h7.165v.292Z" transform="translate(-33.431 -10.545)" fill="#fff"/>
    <path id="Pfad_454" data-name="Pfad 454" d="M162.032,53.163h-4.91l-1.247,2.947h-.416L160,45.76h.677L165.2,56.111H163.34Zm-.139-.292-2.309-5.325-2.309,5.325Z" transform="translate(-35.825 -10.545)" fill="#fff"/>
    <path id="Pfad_455" data-name="Pfad 455" d="M175.1,50.739l-1.247,1.124v4.248H172.1V45.76h1.755v5.649l6.272-5.649h.516l-4.286,3.848,4.617,6.5h-2.024Z" transform="translate(-39.66 -10.545)" fill="#fff"/>
    <path id="Pfad_456" data-name="Pfad 456" d="M194.541,46.052h-3.324V56.111h-1.762V46.052H186.13V45.76h8.411Z" transform="translate(-42.893 -10.545)" fill="#fff"/>
    <path id="Pfad_457" data-name="Pfad 457" d="M200.91,52.016V45.76h1.762v6.487a3.194,3.194,0,0,0,3.371,3.448,3.142,3.142,0,0,0,3.278-3.448V45.76h.354v6.534c0,2.378-1.539,3.963-4.156,3.963S200.91,54.571,200.91,52.016Z" transform="translate(-46.299 -10.545)" fill="#fff"/>
    <path id="Pfad_458" data-name="Pfad 458" d="M226.021,56.111h-1.947a2.308,2.308,0,0,1-.723-.862L221.866,52.4a1.67,1.67,0,0,0-.77-.77h-2.124v4.44H217.21V45.76h4.248c2.155,0,3.848,1.239,3.848,2.955,0,1.539-1.3,2.678-3.117,2.917a2.463,2.463,0,0,1,1.785,1.239L225.144,55a3.34,3.34,0,0,0,.877,1.108Zm-7.049-4.733h2.1a2.38,2.38,0,0,0,2.378-2.663,2.38,2.38,0,0,0-2.378-2.663h-2.1Z" transform="translate(-50.055 -10.545)" fill="#fff"/>
    <path id="Pfad_459" data-name="Pfad 459" d="M82.227,68.329c0,.854-.677,1.285-1.762,1.285H77.21V64.92h3.124c.947,0,1.624.4,1.624,1.193a1.023,1.023,0,0,1-1,1.085C81.666,67.244,82.227,67.544,82.227,68.329Zm-4.463-1.37H80.25c.67,0,1.147-.177,1.147-.77s-.477-.77-1.147-.77H77.764Zm3.848,1.324c0-.577-.469-.816-1.277-.816h-2.57v1.639h2.6c.808,0,1.3-.277,1.3-.823Z" transform="translate(-17.793 -14.961)" fill="#edbf7c"/>
    <path id="Pfad_460" data-name="Pfad 460" d="M84.816,64.911l1.97,2.54,1.955-2.54h.693l-2.309,3.078v1.6h-.569V67.958L84.2,64.88Z" transform="translate(-19.403 -14.951)" fill="#edbf7c"/>
    <path id="Pfad_461" data-name="Pfad 461" d="M99.173,69.086v.508H94.64V64.9h4.471v.523H95.2v1.539h3.309v.523H95.2v1.6Z" transform="translate(-21.809 -14.956)" fill="#edbf7c"/>
    <path id="Pfad_462" data-name="Pfad 462" d="M106.186,69.086v.508H102V64.9h.562v4.171Z" transform="translate(-23.505 -14.956)" fill="#edbf7c"/>
    <path id="Pfad_463" data-name="Pfad 463" d="M115.447,68.286l.539.269a2.686,2.686,0,0,1-2.409,1.154c-1.747,0-2.817-.962-2.817-2.486s1.07-2.486,2.84-2.486a2.686,2.686,0,0,1,2.386,1.154l-.539.269a2.016,2.016,0,0,0-1.855-.9c-1.362,0-2.255.67-2.255,1.962s.893,1.962,2.255,1.962a1.993,1.993,0,0,0,1.855-.9Z" transform="translate(-25.524 -14.917)" fill="#edbf7c"/>
    <path id="Pfad_464" data-name="Pfad 464" d="M123.929,64.915v4.679h-.569v-2.1h-3.848v2.1h-.562V64.9h.562v2.047h3.848V64.915Z" transform="translate(-27.411 -14.956)" fill="#edbf7c"/>
    <path id="Pfad_465" data-name="Pfad 465" d="M131.041,68.348h-3.163l-.685,1.247h-.623l2.578-4.694h.631l2.586,4.694h-.639Zm-.277-.508-1.308-2.409-1.3,2.409Z" transform="translate(-29.167 -14.956)" fill="#edbf7c"/>
    <path id="Pfad_466" data-name="Pfad 466" d="M139.608,69.594l-1.539-1.8h-2.239v1.8h-.569V64.9h3.147c1.047,0,1.8.523,1.8,1.447a1.447,1.447,0,0,1-1.454,1.431l1.593,1.816Zm-1.247-2.309c.77,0,1.262-.292,1.262-.931s-.508-.923-1.262-.923h-2.532v1.855Z" transform="translate(-31.17 -14.956)" fill="#edbf7c"/>
    <path id="Pfad_467" data-name="Pfad 467" d="M143.31,69.594V64.9h.531v4.694Z" transform="translate(-33.025 -14.956)" fill="#edbf7c"/>
    <path id="Pfad_468" data-name="Pfad 468" d="M146.622,65.439v1.639h3.317V67.6h-3.317v1.993h-.562V64.9h4.463v.523Z" transform="translate(-33.659 -14.956)" fill="#edbf7c"/>
    <path id="Pfad_469" data-name="Pfad 469" d="M29.934,41.024c-1.7-.185-3.294-.416-4.794-.693V53.775H36.968V42.024C35.129,41.662,32.8,41.355,29.934,41.024ZM25.14,12.05V22.624a64.188,64.188,0,0,0,8.134,1.108c.97.092,2.239.2,3.694.4V12.05Z" transform="translate(-5.793 -2.777)" fill="#edbf7c"/>
    <path id="Pfad_470" data-name="Pfad 470" d="M50.521,40.271c0,11.543-10.435,20.008-25.318,20.008C11.2,60.272,0,52.16,0,41.556H2.132c0,9.381,9.273,16.338,21.247,16.338,10.327,0,17.777-5.7,17.777-12.752,0-5.81-3.663-7.865-10-9.027-1.978-.369-4.225-.631-6.7-.908-1.685-.185-3.417-.439-5.133-.77C10.089,32.675,1.231,28.52,1.231,18.277,1.254,6.926,11.589,0,25.5,0,38.155,0,47.912,7.526,47.912,17.7H45.789c0-8.881-8.019-15.391-18.539-15.391-9.773,0-17.007,4.548-17.007,11.589,0,5.672,3.54,7.95,9.1,9.088a69.967,69.967,0,0,0,7.873,1.039c1.324.123,2.655.262,3.956.446C41.417,25.965,50.521,29.828,50.521,40.271Z" fill="#edbf7c"/>
  </g>
</svg>
