<svg xmlns="http://www.w3.org/2000/svg" width="201.031" height="201.031" viewBox="0 0 201.031 201.031">
  <g id="Gruppe_27" data-name="Gruppe 27" transform="translate(0.5 0.5)">
    <path id="Pfad_253" data-name="Pfad 253" d="M116.771,101.61c0,55.237-7.189,100.016-16.057,100.016S84.657,156.846,84.657,101.61,91.846,1.594,100.713,1.594,116.771,46.373,116.771,101.61Z" transform="translate(-0.699 -1.594)" fill="none" stroke="#88f332" stroke-miterlimit="10" stroke-width="1"/>
    <path id="Pfad_254" data-name="Pfad 254" d="M100.516,117.865C45.279,117.865.5,110.677.5,101.808S45.279,85.752,100.516,85.752s100.016,7.189,100.016,16.056S155.752,117.865,100.516,117.865Z" transform="translate(-0.5 -1.793)" fill="none" stroke="#88f332" stroke-miterlimit="10" stroke-width="1"/>
    <path id="Pfad_255" data-name="Pfad 255" d="M116.251,107.161c-20.62,51.343-44.03,90.4-52.286,87.245s1.766-47.34,22.387-98.683,44.029-90.4,52.286-87.244S136.871,55.819,116.251,107.161Z" transform="translate(-1.286 -1.426)" fill="none" stroke="#88f332" stroke-miterlimit="10" stroke-width="1"/>
    <path id="Pfad_256" data-name="Pfad 256" d="M94.629,117.345c-51.343-20.62-90.4-44.03-87.245-52.286s47.34,1.766,98.683,22.387,90.4,44.029,87.244,52.286S145.972,137.965,94.629,117.345Z" transform="translate(-0.333 -2.38)" fill="none" stroke="#88f332" stroke-miterlimit="10" stroke-width="1"/>
    <ellipse id="Ellipse_17" data-name="Ellipse 17" cx="99.505" cy="15.617" rx="99.505" ry="15.617" transform="translate(18.611 159.334) rotate(-45)" fill="none" stroke="#88f332" stroke-miterlimit="10" stroke-width="1"/>
    <ellipse id="Ellipse_18" data-name="Ellipse 18" cx="15.617" cy="99.505" rx="15.617" ry="99.505" transform="translate(18.611 40.697) rotate(-45)" fill="none" stroke="#88f332" stroke-miterlimit="10" stroke-width="1"/>
    <path id="Pfad_257" data-name="Pfad 257" d="M106.23,117.3c-51.093,21.248-95.148,31.811-98.4,23.594s35.526-32.1,86.618-53.352,95.149-31.811,98.4-23.594S157.322,96.051,106.23,117.3Z" transform="translate(-0.322 -2.405)" fill="none" stroke="#88f332" stroke-miterlimit="10" stroke-width="1"/>
    <path id="Pfad_258" data-name="Pfad 258" d="M86.448,107.324C65.2,56.231,54.637,12.176,62.854,8.921s32.1,35.526,53.352,86.618,31.811,95.149,23.594,98.4S107.7,158.416,86.448,107.324Z" transform="translate(-1.311 -1.416)" fill="none" stroke="#88f332" stroke-miterlimit="10" stroke-width="1"/>
    <path id="Pfad_259" data-name="Pfad 259" d="M117.35,98.392c11.41,54.073,13.619,99.328,4.933,101.077S97.308,158.8,85.9,104.728,72.28,5.4,80.965,3.651,105.94,44.319,117.35,98.392Z" transform="translate(-0.944 -1.544)" fill="none" stroke="#88f332" stroke-miterlimit="10" stroke-width="1"/>
    <path id="Pfad_260" data-name="Pfad 260" d="M104.3,117.775C50.23,129.186,4.976,131.394,3.226,122.708S43.894,97.733,97.967,86.323,197.295,72.7,199.044,81.39,158.377,106.365,104.3,117.775Z" transform="translate(-0.433 -2.033)" fill="none" stroke="#88f332" stroke-miterlimit="10" stroke-width="1"/>
    <path id="Pfad_261" data-name="Pfad 261" d="M117.389,104.233c-9.573,54.42-24.417,97.347-33.158,95.878S76.167,153.337,85.74,98.916,110.157,1.569,118.9,3.037,126.962,49.812,117.389,104.233Z" transform="translate(-0.882 -1.559)" fill="none" stroke="#88f332" stroke-miterlimit="10" stroke-width="1"/>
    <path id="Pfad_262" data-name="Pfad 262" d="M98.491,117.813C44.071,108.24,1.145,93.4,2.613,84.655s46.774-8.064,101.195,1.509,97.348,24.418,95.879,33.157S152.912,127.386,98.491,117.813Z" transform="translate(-0.448 -1.973)" fill="none" stroke="#88f332" stroke-miterlimit="10" stroke-width="1"/>
    <path id="Pfad_263" data-name="Pfad 263" d="M112.984,109.8C83.153,155.742,53.2,189.136,46.091,184.391s11.3-45.832,41.132-91.771S147,13.287,154.118,18.032,142.816,63.865,112.984,109.8Z" transform="translate(0.598 -1.195)" fill="none" stroke="#88f332" stroke-miterlimit="10" stroke-width="1"/>
    <path id="Pfad_264" data-name="Pfad 264" d="M92.2,113.409C46.257,83.578,12.863,53.629,17.608,46.516s45.832,11.3,91.771,41.132,79.333,59.781,74.588,66.895S138.134,143.241,92.2,113.409Z" transform="translate(-0.085 -0.513)" fill="none" stroke="#88f332" stroke-miterlimit="10" stroke-width="1"/>
    <path id="Pfad_265" data-name="Pfad 265" d="M109.457,113.37c-45.728,30.149-86.682,48.846-91.476,41.762S46.371,117.863,92.1,87.714s86.683-48.847,91.476-41.762S155.184,83.22,109.457,113.37Z" transform="translate(-0.076 -0.526)" fill="none" stroke="#88f332" stroke-miterlimit="10" stroke-width="1"/>
    <path id="Pfad_266" data-name="Pfad 266" d="M87.289,109.881C57.14,64.153,38.443,23.2,45.528,18.4S82.8,46.8,112.945,92.523,161.792,179.206,154.706,184,117.438,155.608,87.289,109.881Z" transform="translate(0.584 -1.186)" fill="none" stroke="#88f332" stroke-miterlimit="10" stroke-width="1"/>
  </g>
</svg>
