<svg xmlns="http://www.w3.org/2000/svg" width="200.85" height="200.85" viewBox="0 0 200.85 200.85">
  <g id="Gruppe_26" data-name="Gruppe 26" transform="translate(-859.801 -2059)">
    <circle id="Ellipse_10" data-name="Ellipse 10" cx="99.925" cy="99.925" r="99.925" transform="translate(860.301 2059.5)" fill="none" stroke="#88f332" stroke-miterlimit="10" stroke-width="1"/>
    <circle id="Ellipse_11" data-name="Ellipse 11" cx="94.173" cy="94.173" r="94.173" transform="translate(860.301 2065.253)" fill="none" stroke="#88f332" stroke-miterlimit="10" stroke-width="1"/>
    <circle id="Ellipse_12" data-name="Ellipse 12" cx="88.063" cy="88.063" r="88.063" transform="translate(860.301 2072.095)" fill="none" stroke="#88f332" stroke-miterlimit="10" stroke-width="1"/>
    <circle id="Ellipse_13" data-name="Ellipse 13" cx="80.957" cy="80.957" r="80.957" transform="translate(860.301 2080.141)" fill="none" stroke="#88f332" stroke-miterlimit="10" stroke-width="1"/>
    <circle id="Ellipse_14" data-name="Ellipse 14" cx="73.813" cy="73.813" r="73.813" transform="translate(860.301 2087.271)" fill="none" stroke="#88f332" stroke-miterlimit="10" stroke-width="1"/>
    <ellipse id="Ellipse_15" data-name="Ellipse 15" cx="67.365" cy="66.731" rx="67.365" ry="66.731" transform="translate(860.301 2092.694)" fill="none" stroke="#88f332" stroke-miterlimit="10" stroke-width="1"/>
    <path id="Pfad_246" data-name="Pfad 246" d="M380.75,67.375a33.96,33.96,0,1,1-34.281,33.959A34.121,34.121,0,0,1,380.75,67.375Z" transform="translate(580 2059)" fill="none" stroke="#88f332" stroke-miterlimit="10" stroke-width="1"/>
    <path id="Pfad_247" data-name="Pfad 247" d="M386.7,73.274a28.061,28.061,0,1,1-28.326,28.06A28.194,28.194,0,0,1,386.7,73.274Z" transform="translate(580 2059)" fill="none" stroke="#88f332" stroke-miterlimit="10" stroke-width="1"/>
    <path id="Pfad_248" data-name="Pfad 248" d="M392.618,78.224a22.2,22.2,0,1,1-22.412,22.2A22.308,22.308,0,0,1,392.618,78.224Z" transform="translate(580 2059)" fill="none" stroke="#88f332" stroke-miterlimit="10" stroke-width="1"/>
    <path id="Pfad_249" data-name="Pfad 249" d="M374.626,61.309a40.026,40.026,0,1,1-40.4,40.024A40.216,40.216,0,0,1,374.626,61.309Z" transform="translate(580 2059)" fill="none" stroke="#88f332" stroke-miterlimit="10" stroke-width="1"/>
    <path id="Pfad_250" data-name="Pfad 250" d="M369.282,56.015a45.321,45.321,0,1,1-45.749,45.319A45.535,45.535,0,0,1,369.282,56.015Z" transform="translate(580 2059)" fill="none" stroke="#88f332" stroke-miterlimit="10" stroke-width="1"/>
    <path id="Pfad_251" data-name="Pfad 251" d="M363.866,50.65c28.258,0,51.165,22.692,51.165,50.683s-22.907,50.684-51.165,50.684S312.7,129.325,312.7,101.333,335.608,50.65,363.866,50.65Z" transform="translate(580 2059)" fill="none" stroke="#88f332" stroke-miterlimit="10" stroke-width="1"/>
    <path id="Pfad_252" data-name="Pfad 252" d="M358.047,44.886c31.471,0,56.984,25.272,56.984,56.448s-25.513,56.447-56.984,56.447-56.984-25.272-56.984-56.447S326.576,44.886,358.047,44.886Z" transform="translate(580 2059)" fill="none" stroke="#88f332" stroke-miterlimit="10" stroke-width="1"/>
    <ellipse id="Ellipse_16" data-name="Ellipse 16" cx="62.888" cy="62.296" rx="62.888" ry="62.296" transform="translate(869.255 2097.811)" fill="none" stroke="#88f332" stroke-miterlimit="10" stroke-width="1"/>
  </g>
</svg>
