<svg xmlns="http://www.w3.org/2000/svg" width="39.597" height="40" viewBox="0 0 39.597 40">
  <path id="Pfad_25" data-name="Pfad 25" d="M19.47,18.535c-2.828,0-4.909-1.594-4.909-4.675,0-3.028,1.921-4.835,4.909-4.835a4.476,4.476,0,0,1,4.856,4.835c0,3.028-1.921,4.675-4.856,4.675m4.215,14.983c4.909,0,5.176,6.482-4.215,6.482-6.4,0-8.163-2.657-6.723-5.366a11.278,11.278,0,0,0,1.387.106c3.788,0,6.67-1.222,9.551-1.222M7.519,13.86A10.539,10.539,0,0,0,10.24,21.3C6.664,24.061,5.864,28.63,7.785,31.605a10.157,10.157,0,0,0-1.726,3.387L3.969,32.9a13.542,13.542,0,0,1,0-19.155L8.635,9.083A10.449,10.449,0,0,0,7.519,13.86M36.483,4.538c.957-.956,1.7-1.885,1.7-4.538,0,0-.531,1.082-2.9,1.082S29.764,2,29.764,5.74a4.085,4.085,0,0,1,3.962-2.354c-.636,0-3.838,1.734-3.838,4.657a3.887,3.887,0,0,0,.489,1.874,10.491,10.491,0,0,1,.993,3.942c0,6.482-5.336,10.786-11.9,10.786a16.886,16.886,0,0,1-4.162-.478c-2.294,1.913-2.508,4.25,1.014,4.25,2.454,0,4.055-1.009,7.63-1.009,5.884,0,9.2,3.537,9.619,7.552L35.629,32.9a13.542,13.542,0,0,0,0-19.155s-1.924-1.973-3.669-3.667A2.447,2.447,0,0,1,31,8.043c0-2.19,4.332-2.357,5.481-3.506" transform="translate(0)" fill="#88f332" fill-rule="evenodd"/>
</svg>
