<svg xmlns="http://www.w3.org/2000/svg" width="231.154" height="28.767" viewBox="0 0 231.154 28.767">
  <g id="Gruppe_8" data-name="Gruppe 8" transform="translate(-51.248 -7.372)">
    <path id="Pfad_1" data-name="Pfad 1" d="M95.039,32.021a1.176,1.176,0,0,0-.347.838c0,.548.4.808.983.808h.693c3.639,0,6.18,1.82,6.18,4.881,0,3.148-2.714,5.026-6.585,5.026-3.9,0-6.614-1.877-6.614-5.026a4.177,4.177,0,0,1,2.657-3.927A1.9,1.9,0,0,1,91.14,33a2.308,2.308,0,0,1,.924-1.819,4.833,4.833,0,0,1-2.686-4.476c0-3.495,2.571-5.719,6.585-5.719a9.342,9.342,0,0,1,1.589.145l2.166-3.7,3.235,1.675-2.08,3.523a5.434,5.434,0,0,1,1.675,4.072c0,3.263-2.6,5.343-6.585,5.343-.318,0-.636,0-.924-.029m3.725-5.314c0-1.531-1.1-2.484-2.8-2.484a2.473,2.473,0,1,0,0,4.909c1.675,0,2.8-.924,2.8-2.426m-2.8,13.95c1.56,0,2.715-.78,2.715-2.109,0-1.357-1.184-2.05-2.6-2.05h-.26c-1.3,0-2.57.693-2.57,2.05,0,1.329,1.155,2.109,2.715,2.109" transform="translate(-38.101 -7.435)" fill="#88f332"/>
    <path id="Pfad_2" data-name="Pfad 2" d="M124.286,24.234v3.495a2.907,2.907,0,0,0-.9-.115c-1.358,0-2.252.664-2.252,2.368v9.3H117.1V29.4c0-3.553,1.993-5.373,5.6-5.373a5.6,5.6,0,0,1,1.588.2" transform="translate(-49.932 -10.248)" fill="#88f332"/>
    <path id="Pfad_3" data-name="Pfad 3" d="M140.031,39.615A7.682,7.682,0,0,1,132,31.672a7.652,7.652,0,0,1,7.972-7.942c4.39,0,7.335,3.321,7.335,7.942a6.116,6.116,0,0,1-.115,1.27h-11a3.671,3.671,0,0,0,3.87,3.09,4.3,4.3,0,0,0,3.754-1.761l2.34,2.455a7.258,7.258,0,0,1-6.123,2.888m-3.841-9.242h7.163a3.41,3.41,0,0,0-3.466-3.119,3.6,3.6,0,0,0-3.7,3.119" transform="translate(-56.289 -10.119)" fill="#88f332"/>
    <path id="Pfad_4" data-name="Pfad 4" d="M169.993,39.615a7.682,7.682,0,0,1-8.029-7.942,7.652,7.652,0,0,1,7.972-7.942c4.39,0,7.336,3.321,7.336,7.942a6.118,6.118,0,0,1-.116,1.27h-11a3.672,3.672,0,0,0,3.87,3.09,4.3,4.3,0,0,0,3.754-1.761l2.34,2.455a7.257,7.257,0,0,1-6.123,2.888m-3.841-9.242h7.163a3.409,3.409,0,0,0-3.466-3.119,3.6,3.6,0,0,0-3.7,3.119" transform="translate(-69.065 -10.119)" fill="#88f332"/>
    <path id="Pfad_5" data-name="Pfad 5" d="M199.69,23.73c3.7,0,6.383,2.368,6.383,5.95v9.473H202.03V29.564a2.325,2.325,0,0,0-4.65,0v9.589h-4.044V29.535c0-3.466,2.657-5.805,6.354-5.805" transform="translate(-82.443 -10.119)" fill="#88f332"/>
    <path id="Pfad_6" data-name="Pfad 6" d="M225.86,29.68l1.877.953c1.7.867,3.177,1.935,3.177,4.361,0,2.715-2.079,4.621-5.574,4.621-3.292,0-4.968-1.848-5.517-3.812l3-1.675a2.729,2.729,0,0,0,2.542,2.2c.953,0,1.589-.491,1.589-1.358,0-.606-.4-1.011-1.647-1.588l-1.588-.78c-1.675-.808-3.235-1.791-3.235-4.448,0-2.4,2.166-4.419,5.026-4.419a5.626,5.626,0,0,1,5.43,3.292l-2.8,1.675a2.863,2.863,0,0,0-2.542-1.761c-.809,0-1.415.433-1.415,1.184,0,.664.433.953,1.675,1.56" transform="translate(-93.738 -10.119)" fill="#88f332"/>
    <path id="Pfad_7" data-name="Pfad 7" d="M244.151,31.29V25.167h-1.415V21.7h1.415V17.889h4.044V21.7h3.61v3.466h-3.61v5.748a2.079,2.079,0,0,0,2.31,2.368,2.325,2.325,0,0,0,.9-.145v3.523a4.553,4.553,0,0,1-1.56.231c-3.668,0-5.69-1.877-5.69-5.6" transform="translate(-103.509 -7.628)" fill="#88f332"/>
    <path id="Pfad_8" data-name="Pfad 8" d="M269.2,39.615a7.682,7.682,0,0,1-8.028-7.942,7.651,7.651,0,0,1,7.971-7.942c4.39,0,7.335,3.321,7.335,7.942a6.12,6.12,0,0,1-.115,1.27h-11a3.671,3.671,0,0,0,3.87,3.09,4.305,4.305,0,0,0,3.755-1.761l2.34,2.455a7.258,7.258,0,0,1-6.124,2.888m-3.841-9.242h7.163a3.41,3.41,0,0,0-3.466-3.119,3.6,3.6,0,0,0-3.7,3.119" transform="translate(-111.368 -10.119)" fill="#88f332"/>
    <path id="Pfad_9" data-name="Pfad 9" d="M292.137,15.221a2.4,2.4,0,1,1,2.4,2.368,2.367,2.367,0,0,1-2.4-2.368m.4,4.333h4.043V34.515h-4.043Z" transform="translate(-124.574 -5.481)" fill="#88f332"/>
    <path id="Pfad_10" data-name="Pfad 10" d="M312.791,23.73c3.7,0,6.383,2.368,6.383,5.95v9.473h-4.043V29.564a2.325,2.325,0,0,0-4.65,0v9.589h-4.044V29.535c0-3.466,2.657-5.805,6.354-5.805" transform="translate(-130.672 -10.119)" fill="#88f332"/>
    <path id="Pfad_11" data-name="Pfad 11" d="M334.487,49.053a.722.722,0,1,1,.722.722.722.722,0,0,1-.722-.722" transform="translate(-142.634 -20.597)" fill="#88f332"/>
    <path id="Pfad_12" data-name="Pfad 12" d="M348.838,19.323a6.828,6.828,0,0,1,6.816,4.881h.058a17.225,17.225,0,0,1-.087-1.848v-9.5h.924V34.515h-.9V31.771a17.244,17.244,0,0,1,.087-1.791h-.058a6.783,6.783,0,0,1-6.844,5,7.548,7.548,0,0,1-7.654-7.827,7.547,7.547,0,0,1,7.654-7.827m6.816,7.827a6.657,6.657,0,0,0-6.758-6.961,6.725,6.725,0,0,0-6.758,6.961,6.724,6.724,0,0,0,6.758,6.96,6.656,6.656,0,0,0,6.758-6.96" transform="translate(-145.489 -5.481)" fill="#88f332"/>
    <path id="Pfad_13" data-name="Pfad 13" d="M382.455,39.787a7.623,7.623,0,0,1-7.682-7.827,7.616,7.616,0,0,1,7.653-7.827c4.275,0,7.279,3.408,7.279,7.827a2.457,2.457,0,0,1-.029.462H375.7a6.674,6.674,0,0,0,6.758,6.5,6.772,6.772,0,0,0,5.488-2.715l.577.549a7.47,7.47,0,0,1-6.065,3.032m-6.758-8.2h13.084C388.665,27.83,386.095,25,382.426,25a6.649,6.649,0,0,0-6.729,6.585" transform="translate(-159.812 -10.291)" fill="#88f332"/>
    <path id="Pfad_14" data-name="Pfad 14" d="M408.888,30.948l1.993.867c2.079.895,3.234,2.166,3.234,4.043,0,2.311-1.848,3.928-4.563,3.928a4.8,4.8,0,0,1-4.968-3.9l.779-.346a4.142,4.142,0,0,0,4.246,3.408c2.079,0,3.581-1.213,3.581-3.09,0-1.444-.924-2.484-2.8-3.293L408.4,31.7c-1.964-.838-3.061-1.964-3.061-3.842,0-2.08,1.7-3.726,4.187-3.726a4.5,4.5,0,0,1,4.563,3.466l-.751.318a3.829,3.829,0,0,0-3.841-2.946,2.99,2.99,0,0,0-3.235,2.889c0,1.444.9,2.368,2.628,3.09" transform="translate(-172.525 -10.29)" fill="#88f332"/>
    <path id="Pfad_15" data-name="Pfad 15" d="M427.949,16.73H429.1v1.156h-1.156Zm.115,4.708h.924v14.73h-.924Z" transform="translate(-182.488 -7.134)" fill="#88f332"/>
    <path id="Pfad_16" data-name="Pfad 16" d="M444.012,24.133a6.577,6.577,0,0,1,6.7,4.852h.087a17.259,17.259,0,0,1-.087-1.791V24.6h.867V45.967H440.432V45.13h10.224V36.321a17.208,17.208,0,0,1,.086-1.82h-.057a6.531,6.531,0,0,1-6.672,4.91,7.4,7.4,0,0,1-7.451-7.625,7.392,7.392,0,0,1,7.451-7.654m-6.527,7.625a6.616,6.616,0,1,0,13.228,0,6.615,6.615,0,1,0-13.228,0" transform="translate(-186.16 -10.291)" fill="#88f332"/>
    <path id="Pfad_17" data-name="Pfad 17" d="M483.594,24.938v14.73h-.924V25.8h-9.936V39.668h-.924V24.938Z" transform="translate(-201.191 -10.634)" fill="#88f332"/>
  </g>
</svg>
