<?xml version="1.0" encoding="UTF-8"?><svg id="Ebene_2" xmlns="http://www.w3.org/2000/svg" viewBox="0 0 494.07 69.74"><defs><style>.cls-1,.cls-2{fill:#88f332;}.cls-2{fill-rule:evenodd;}</style></defs><g id="Logo_Slogans"><g><g><path class="cls-1" d="M99.27,42.86c-.35,.35-.6,.86-.6,1.46,0,.96,.71,1.41,1.71,1.41h1.21c6.34,0,10.78,3.17,10.78,8.51s-4.73,8.76-11.48,8.76-11.53-3.27-11.53-8.76c0-2.77,1.36-5.34,4.63-6.85-1.11-.81-1.51-1.76-1.51-2.82,0-1.36,.71-2.47,1.61-3.17-2.97-1.56-4.68-4.28-4.68-7.8,0-6.09,4.48-9.97,11.48-9.97,.96,0,1.91,.1,2.77,.25l3.78-6.45,5.64,2.92-3.63,6.14c1.86,1.76,2.92,4.18,2.92,7.1,0,5.69-4.53,9.32-11.48,9.32-.55,0-1.11,0-1.61-.05Zm6.5-9.26c0-2.67-1.91-4.33-4.88-4.33s-4.83,1.66-4.83,4.33,2.01,4.23,4.83,4.23,4.88-1.61,4.88-4.23Zm-4.88,24.32c2.72,0,4.73-1.36,4.73-3.68s-2.06-3.57-4.53-3.57h-.45c-2.27,0-4.48,1.21-4.48,3.57s2.01,3.68,4.73,3.68Z"/><path class="cls-1" d="M129.63,24.38v6.09c-.5-.15-.96-.2-1.56-.2-2.37,0-3.93,1.16-3.93,4.13v16.21h-7.05v-17.22c0-6.19,3.47-9.37,9.77-9.37,1.11,0,2.17,.15,2.77,.35Z"/><path class="cls-1" d="M146,51.42c-8.26,0-14-5.84-14-13.85s5.79-13.85,13.9-13.85c7.65,0,12.79,5.79,12.79,13.85,0,.71-.05,1.56-.2,2.22h-19.19c.76,3.42,3.12,5.39,6.75,5.39,2.92,0,4.83-.91,6.55-3.07l4.08,4.28c-2.67,3.47-6.24,5.04-10.68,5.04Zm-6.7-16.11h12.49c-.5-3.27-2.77-5.44-6.04-5.44s-5.74,2.06-6.45,5.44Z"/><path class="cls-1" d="M175.96,51.42c-8.26,0-14-5.84-14-13.85s5.79-13.85,13.9-13.85c7.65,0,12.79,5.79,12.79,13.85,0,.71-.05,1.56-.2,2.22h-19.19c.76,3.42,3.12,5.39,6.75,5.39,2.92,0,4.83-.91,6.55-3.07l4.08,4.28c-2.67,3.47-6.24,5.04-10.67,5.04Zm-6.7-16.11h12.49c-.5-3.27-2.77-5.44-6.04-5.44s-5.74,2.06-6.45,5.44Z"/><path class="cls-1" d="M204.41,23.73c6.45,0,11.13,4.13,11.13,10.37v16.52h-7.05v-16.72c0-2.32-1.76-4.03-4.03-4.03s-4.08,1.71-4.08,4.03v16.72h-7.05v-16.77c0-6.04,4.63-10.12,11.08-10.12Z"/><path class="cls-1" d="M230.35,34.1l3.27,1.66c2.97,1.51,5.54,3.37,5.54,7.6,0,4.73-3.63,8.06-9.72,8.06-5.74,0-8.66-3.22-9.62-6.65l5.24-2.92c.45,1.66,1.81,3.83,4.43,3.83,1.66,0,2.77-.86,2.77-2.37,0-1.06-.71-1.76-2.87-2.77l-2.77-1.36c-2.92-1.41-5.64-3.12-5.64-7.75,0-4.18,3.78-7.7,8.76-7.7s7.91,2.62,9.47,5.74l-4.88,2.92c-.96-1.76-2.32-3.07-4.43-3.07-1.41,0-2.47,.75-2.47,2.06,0,1.16,.76,1.66,2.92,2.72Z"/><path class="cls-1" d="M245.2,41.25v-10.67h-2.47v-6.04h2.47v-6.65h7.05v6.65h6.29v6.04h-6.29v10.02c0,2.92,1.56,4.13,4.03,4.13,.55,0,1.06-.05,1.56-.25v6.14c-.65,.25-1.61,.4-2.72,.4-6.4,0-9.92-3.27-9.92-9.77Z"/><path class="cls-1" d="M275.17,51.42c-8.26,0-14-5.84-14-13.85s5.79-13.85,13.9-13.85c7.65,0,12.79,5.79,12.79,13.85,0,.71-.05,1.56-.2,2.22h-19.19c.76,3.42,3.12,5.39,6.75,5.39,2.92,0,4.83-.91,6.55-3.07l4.08,4.28c-2.67,3.47-6.24,5.04-10.68,5.04Zm-6.7-16.11h12.49c-.5-3.27-2.77-5.44-6.04-5.44s-5.74,2.06-6.45,5.44Z"/><path class="cls-1" d="M292.14,16.98c0-2.32,1.86-4.13,4.18-4.13s4.18,1.81,4.18,4.13-1.86,4.13-4.18,4.13-4.18-1.81-4.18-4.13Zm.71,33.64V24.54h7.05v26.08h-7.05Z"/><path class="cls-1" d="M317.52,23.73c6.45,0,11.13,4.13,11.13,10.37v16.52h-7.05v-16.72c0-2.32-1.76-4.03-4.03-4.03s-4.08,1.71-4.08,4.03v16.72h-7.05v-16.77c0-6.04,4.63-10.12,11.08-10.12Z"/><path class="cls-1" d="M334.44,49.11c0-1.01,.81-1.76,1.81-1.76s1.81,.76,1.81,1.76-.81,1.81-1.81,1.81-1.81-.81-1.81-1.81Z"/><path class="cls-1" d="M355.38,24.08c4.88,0,9.52,2.57,11.03,6.85h.15c-.1-.86-.15-1.71-.15-3.02V12.85h2.62V50.62h-2.47v-3.58c0-1.21,.05-2.12,.15-3.02h-.15c-1.56,4.73-6.09,7.4-11.18,7.4-7.91,0-13.39-5.84-13.39-13.7s5.54-13.65,13.39-13.65Zm11.13,13.65c0-6.45-4.53-11.28-10.88-11.28s-10.93,4.83-10.93,11.28,4.68,11.28,10.93,11.28,10.88-4.83,10.88-11.28Z"/><path class="cls-1" d="M388.97,51.42c-7.7,0-13.5-5.89-13.5-13.7s5.79-13.65,13.5-13.65,12.69,5.89,12.69,13.65c0,.3-.05,.96-.05,1.26h-23.42c.55,5.89,4.93,10.02,10.83,10.02,3.78,0,6.85-1.66,9.01-4.43l1.56,1.61c-2.47,3.32-6.19,5.24-10.62,5.24Zm-10.78-14.8h20.85c-.25-5.84-4.33-10.17-10.12-10.17s-10.22,4.23-10.73,10.17Z"/><path class="cls-1" d="M413.35,35.66l3.47,1.51c3.47,1.56,5.64,3.68,5.64,7.2,0,4.13-3.32,7.05-8.31,7.05s-8.16-3.07-8.86-6.8l2.12-1.06c.55,2.97,3.12,5.54,6.9,5.54,3.17,0,5.49-1.81,5.49-4.73,0-2.27-1.46-3.83-4.43-5.14l-3.37-1.46c-3.42-1.51-5.49-3.47-5.49-7,0-3.78,3.17-6.7,7.65-6.7s7.25,2.57,8.26,5.94l-2.01,1.01c-.75-2.62-3.07-4.63-6.24-4.63s-5.08,1.86-5.08,4.38c0,2.27,1.46,3.63,4.28,4.88Z"/><path class="cls-1" d="M428.86,19.05v-2.92h2.97v2.92h-2.97Zm.15,31.57V24.89h2.62v25.73h-2.62Z"/><path class="cls-1" d="M451.11,24.08c5.49,0,9.82,2.92,11.08,7.1h.1c-.05-.91-.1-1.76-.1-2.97v-3.32h2.42V62.2h-19.39v-2.37h16.77v-13.29c0-1.26,.05-2.06,.15-3.02h-.1c-1.16,4.23-5.44,7.2-10.83,7.2-7.45,0-13.04-5.69-13.04-13.34s5.49-13.29,12.94-13.29Zm-10.27,13.29c0,6.29,4.58,10.93,10.67,10.93s10.62-4.68,10.62-10.93-4.43-10.93-10.62-10.93-10.67,4.68-10.67,10.93Z"/><path class="cls-1" d="M494.07,24.89v25.73h-2.62V27.2h-15.61v23.42h-2.62V24.89h20.85Z"/></g><path class="cls-2" d="M33.94,32.32c-4.93,0-8.56-2.78-8.56-8.15s3.35-8.43,8.56-8.43,8.47,3.06,8.47,8.43-3.35,8.15-8.47,8.15Zm7.35,26.12c8.56,0,9.02,11.3-7.35,11.3-11.16,0-14.23-4.63-11.72-9.36,.74,.09,1.58,.19,2.42,.19,6.6,0,11.63-2.13,16.65-2.13ZM13.11,24.16c0,5.28,1.67,9.73,4.74,12.97-6.23,4.82-7.63,12.78-4.28,17.97-1.42,1.86-2.43,3.86-3.01,5.9l-3.64-3.64c-9.22-9.22-9.22-24.17,0-33.4L15.05,15.84c-1.25,2.45-1.95,5.25-1.95,8.33ZM63.61,7.91c1.67-1.67,2.96-3.29,2.96-7.91,0,0-.93,1.89-5.06,1.89s-9.62,1.59-9.62,8.12c0,0,1.54-4.1,6.91-4.1-1.11,0-6.69,3.02-6.69,8.12,0,1.74,.57,2.61,.85,3.27,.88,2.05,1.73,4.52,1.73,6.87,0,11.3-9.3,18.8-20.74,18.8-2.7,0-5.02-.28-7.26-.83-4,3.33-4.37,7.41,1.77,7.41,4.28,0,7.07-1.76,13.3-1.76,10.26,0,16.04,6.17,16.77,13.17l3.59-3.59c9.23-9.22,9.23-24.17,0-33.4,0,0-3.35-3.44-6.4-6.39-1.47-1.43-1.67-2.33-1.67-3.55,0-3.82,7.55-4.11,9.56-6.11Z"/></g></g></svg>