<svg xmlns="http://www.w3.org/2000/svg" width="200.338" height="199.993" viewBox="0 0 200.338 199.993">
  <g id="Gruppe_25" data-name="Gruppe 25" transform="translate(-1140.308 -2061.171)">
    <path id="Pfad_267" data-name="Pfad 267" d="M667.871,9.737A7.566,7.566,0,1,1,660.3,2.171a7.565,7.565,0,0,1,7.566,7.566" transform="translate(580 2059)" fill="#88f332"/>
    <path id="Pfad_268" data-name="Pfad 268" d="M667.871,194.6a7.566,7.566,0,1,1-7.566-7.566,7.565,7.565,0,0,1,7.566,7.566" transform="translate(580 2059)" fill="#88f332"/>
    <path id="Pfad_269" data-name="Pfad 269" d="M620.642,18.337a7.566,7.566,0,1,1-10.336-2.769,7.568,7.568,0,0,1,10.336,2.769" transform="translate(580 2059)" fill="#88f332"/>
    <path id="Pfad_270" data-name="Pfad 270" d="M713.073,178.431a7.566,7.566,0,1,1-10.336-2.769,7.568,7.568,0,0,1,10.336,2.769" transform="translate(580 2059)" fill="#88f332"/>
    <path id="Pfad_271" data-name="Pfad 271" d="M584.041,49.4a7.566,7.566,0,1,1-10.336,2.769A7.566,7.566,0,0,1,584.041,49.4" transform="translate(580 2059)" fill="#88f332"/>
    <path id="Pfad_272" data-name="Pfad 272" d="M744.135,141.83A7.566,7.566,0,1,1,733.8,144.6a7.566,7.566,0,0,1,10.336-2.769" transform="translate(580 2059)" fill="#88f332"/>
    <path id="Pfad_273" data-name="Pfad 273" d="M567.874,94.6a7.566,7.566,0,1,1-7.566,7.566,7.565,7.565,0,0,1,7.566-7.566" transform="translate(580 2059)" fill="#88f332"/>
    <path id="Pfad_274" data-name="Pfad 274" d="M752.735,94.6a7.566,7.566,0,1,1-7.566,7.566,7.565,7.565,0,0,1,7.566-7.566" transform="translate(580 2059)" fill="#88f332"/>
    <path id="Pfad_275" data-name="Pfad 275" d="M576.474,141.83a7.566,7.566,0,1,1-2.768,10.336,7.567,7.567,0,0,1,2.768-10.336" transform="translate(580 2059)" fill="#88f332"/>
    <path id="Pfad_276" data-name="Pfad 276" d="M736.569,49.4A7.566,7.566,0,1,1,733.8,59.736,7.568,7.568,0,0,1,736.569,49.4" transform="translate(580 2059)" fill="#88f332"/>
    <path id="Pfad_277" data-name="Pfad 277" d="M607.537,178.431a7.566,7.566,0,1,1,2.769,10.336,7.566,7.566,0,0,1-2.769-10.336" transform="translate(580 2059)" fill="#88f332"/>
    <path id="Pfad_278" data-name="Pfad 278" d="M699.968,18.337a7.566,7.566,0,1,1,2.769,10.336,7.566,7.566,0,0,1-2.769-10.336" transform="translate(580 2059)" fill="#88f332"/>
    <path id="Pfad_279" data-name="Pfad 279" d="M668.216,9.737a7.566,7.566,0,1,1-7.566-7.566,7.566,7.566,0,0,1,7.566,7.566" transform="translate(580 2059)" fill="#88f332"/>
    <path id="Pfad_280" data-name="Pfad 280" d="M668.216,194.6a7.566,7.566,0,1,1-7.566-7.566,7.566,7.566,0,0,1,7.566,7.566" transform="translate(580 2059)" fill="#88f332"/>
    <path id="Pfad_281" data-name="Pfad 281" d="M620.987,18.337a7.566,7.566,0,1,1-10.336-2.769,7.568,7.568,0,0,1,10.336,2.769" transform="translate(580 2059)" fill="#88f332"/>
    <path id="Pfad_282" data-name="Pfad 282" d="M713.417,178.431a7.566,7.566,0,1,1-10.336-2.769,7.568,7.568,0,0,1,10.336,2.769" transform="translate(580 2059)" fill="#88f332"/>
    <path id="Pfad_283" data-name="Pfad 283" d="M584.385,49.4a7.566,7.566,0,1,1-10.336,2.769A7.566,7.566,0,0,1,584.385,49.4" transform="translate(580 2059)" fill="#88f332"/>
    <path id="Pfad_284" data-name="Pfad 284" d="M744.48,141.83a7.566,7.566,0,1,1-10.336,2.769,7.566,7.566,0,0,1,10.336-2.769" transform="translate(580 2059)" fill="#88f332"/>
    <path id="Pfad_285" data-name="Pfad 285" d="M568.219,94.6a7.566,7.566,0,1,1-7.566,7.566,7.565,7.565,0,0,1,7.566-7.566" transform="translate(580 2059)" fill="#88f332"/>
    <path id="Pfad_286" data-name="Pfad 286" d="M753.08,94.6a7.566,7.566,0,1,1-7.566,7.566A7.565,7.565,0,0,1,753.08,94.6" transform="translate(580 2059)" fill="#88f332"/>
    <path id="Pfad_287" data-name="Pfad 287" d="M576.819,141.83a7.566,7.566,0,1,1-2.769,10.336,7.568,7.568,0,0,1,2.769-10.336" transform="translate(580 2059)" fill="#88f332"/>
    <path id="Pfad_288" data-name="Pfad 288" d="M736.914,49.4a7.566,7.566,0,1,1-2.769,10.336A7.568,7.568,0,0,1,736.914,49.4" transform="translate(580 2059)" fill="#88f332"/>
    <path id="Pfad_289" data-name="Pfad 289" d="M607.882,178.431a7.566,7.566,0,1,1,2.769,10.336,7.566,7.566,0,0,1-2.769-10.336" transform="translate(580 2059)" fill="#88f332"/>
    <path id="Pfad_290" data-name="Pfad 290" d="M700.312,18.337a7.566,7.566,0,1,1,2.769,10.336,7.566,7.566,0,0,1-2.769-10.336" transform="translate(580 2059)" fill="#88f332"/>
    <path id="Pfad_291" data-name="Pfad 291" d="M666.409,31.812a5.759,5.759,0,1,1-5.759-5.759,5.759,5.759,0,0,1,5.759,5.759" transform="translate(580 2059)" fill="#88f332"/>
    <path id="Pfad_292" data-name="Pfad 292" d="M666.409,172.529a5.759,5.759,0,1,1-5.759-5.759,5.759,5.759,0,0,1,5.759,5.759" transform="translate(580 2059)" fill="#88f332"/>
    <path id="Pfad_293" data-name="Pfad 293" d="M630.458,38.359a5.759,5.759,0,1,1-7.867-2.108,5.759,5.759,0,0,1,7.867,2.108" transform="translate(580 2059)" fill="#88f332"/>
    <path id="Pfad_294" data-name="Pfad 294" d="M700.816,160.223a5.759,5.759,0,1,1-7.867-2.108,5.759,5.759,0,0,1,7.867,2.108" transform="translate(580 2059)" fill="#88f332"/>
    <path id="Pfad_295" data-name="Pfad 295" d="M602.6,62a5.759,5.759,0,1,1-7.867,2.108A5.759,5.759,0,0,1,602.6,62" transform="translate(580 2059)" fill="#88f332"/>
    <path id="Pfad_296" data-name="Pfad 296" d="M724.461,132.362a5.759,5.759,0,1,1-7.867,2.108,5.759,5.759,0,0,1,7.867-2.108" transform="translate(580 2059)" fill="#88f332"/>
    <path id="Pfad_297" data-name="Pfad 297" d="M590.291,96.411a5.759,5.759,0,1,1-5.759,5.759,5.759,5.759,0,0,1,5.759-5.759" transform="translate(580 2059)" fill="#88f332"/>
    <path id="Pfad_298" data-name="Pfad 298" d="M731.008,96.411a5.759,5.759,0,1,1-5.759,5.759,5.759,5.759,0,0,1,5.759-5.759" transform="translate(580 2059)" fill="#88f332"/>
    <path id="Pfad_299" data-name="Pfad 299" d="M596.838,132.362a5.759,5.759,0,1,1-2.108,7.867,5.759,5.759,0,0,1,2.108-7.867" transform="translate(580 2059)" fill="#88f332"/>
    <path id="Pfad_300" data-name="Pfad 300" d="M718.7,62a5.759,5.759,0,1,1-2.108,7.867A5.759,5.759,0,0,1,718.7,62" transform="translate(580 2059)" fill="#88f332"/>
    <path id="Pfad_301" data-name="Pfad 301" d="M620.482,160.223a5.759,5.759,0,1,1,2.108,7.867,5.759,5.759,0,0,1-2.108-7.867" transform="translate(580 2059)" fill="#88f332"/>
    <path id="Pfad_302" data-name="Pfad 302" d="M690.841,38.359a5.759,5.759,0,1,1,2.108,7.867,5.759,5.759,0,0,1-2.108-7.867" transform="translate(580 2059)" fill="#88f332"/>
    <path id="Pfad_303" data-name="Pfad 303" d="M664.868,49.23a4.344,4.344,0,1,1-4.344-4.344,4.344,4.344,0,0,1,4.344,4.344" transform="translate(580 2059)" fill="#88f332"/>
    <path id="Pfad_304" data-name="Pfad 304" d="M664.868,155.361a4.344,4.344,0,1,1-4.344-4.344,4.344,4.344,0,0,1,4.344,4.344" transform="translate(580 2059)" fill="#88f332"/>
    <path id="Pfad_305" data-name="Pfad 305" d="M637.753,54.167a4.344,4.344,0,1,1-5.934-1.59,4.344,4.344,0,0,1,5.934,1.59" transform="translate(580 2059)" fill="#88f332"/>
    <path id="Pfad_306" data-name="Pfad 306" d="M690.819,146.08a4.344,4.344,0,1,1-5.934-1.59,4.343,4.343,0,0,1,5.934,1.59" transform="translate(580 2059)" fill="#88f332"/>
    <path id="Pfad_307" data-name="Pfad 307" d="M616.74,72a4.344,4.344,0,1,1-5.934,1.59A4.344,4.344,0,0,1,616.74,72" transform="translate(580 2059)" fill="#88f332"/>
    <path id="Pfad_308" data-name="Pfad 308" d="M708.653,125.066a4.344,4.344,0,1,1-5.934,1.59,4.344,4.344,0,0,1,5.934-1.59" transform="translate(580 2059)" fill="#88f332"/>
    <path id="Pfad_309" data-name="Pfad 309" d="M607.459,97.952a4.344,4.344,0,1,1-4.344,4.344,4.344,4.344,0,0,1,4.344-4.344" transform="translate(580 2059)" fill="#88f332"/>
    <path id="Pfad_310" data-name="Pfad 310" d="M713.59,97.952a4.344,4.344,0,1,1-4.344,4.344,4.344,4.344,0,0,1,4.344-4.344" transform="translate(580 2059)" fill="#88f332"/>
    <path id="Pfad_311" data-name="Pfad 311" d="M612.4,125.066a4.344,4.344,0,1,1-1.59,5.934,4.343,4.343,0,0,1,1.59-5.934" transform="translate(580 2059)" fill="#88f332"/>
    <path id="Pfad_312" data-name="Pfad 312" d="M704.309,72a4.344,4.344,0,1,1-1.59,5.934A4.343,4.343,0,0,1,704.309,72" transform="translate(580 2059)" fill="#88f332"/>
    <path id="Pfad_313" data-name="Pfad 313" d="M630.23,146.08a4.344,4.344,0,1,1,1.59,5.934,4.344,4.344,0,0,1-1.59-5.934" transform="translate(580 2059)" fill="#88f332"/>
    <path id="Pfad_314" data-name="Pfad 314" d="M683.295,54.167a4.344,4.344,0,1,1,1.59,5.934,4.344,4.344,0,0,1-1.59-5.934" transform="translate(580 2059)" fill="#88f332"/>
    <path id="Pfad_315" data-name="Pfad 315" d="M663.673,63.832a3.148,3.148,0,1,1-3.148-3.148,3.148,3.148,0,0,1,3.148,3.148" transform="translate(580 2059)" fill="#88f332"/>
    <path id="Pfad_316" data-name="Pfad 316" d="M663.673,140.759a3.148,3.148,0,1,1-3.148-3.148,3.148,3.148,0,0,1,3.148,3.148" transform="translate(580 2059)" fill="#88f332"/>
    <path id="Pfad_317" data-name="Pfad 317" d="M644.02,67.411a3.148,3.148,0,1,1-4.3-1.152,3.15,3.15,0,0,1,4.3,1.152" transform="translate(580 2059)" fill="#88f332"/>
    <path id="Pfad_318" data-name="Pfad 318" d="M682.483,134.031a3.148,3.148,0,1,1-4.3-1.152,3.149,3.149,0,0,1,4.3,1.152" transform="translate(580 2059)" fill="#88f332"/>
    <path id="Pfad_319" data-name="Pfad 319" d="M628.789,80.337a3.148,3.148,0,1,1-4.3,1.152,3.148,3.148,0,0,1,4.3-1.152" transform="translate(580 2059)" fill="#88f332"/>
    <path id="Pfad_320" data-name="Pfad 320" d="M695.409,118.8a3.148,3.148,0,1,1-4.3,1.152,3.148,3.148,0,0,1,4.3-1.152" transform="translate(580 2059)" fill="#88f332"/>
    <path id="Pfad_321" data-name="Pfad 321" d="M622.061,99.147a3.148,3.148,0,1,1-3.148,3.148,3.148,3.148,0,0,1,3.148-3.148" transform="translate(580 2059)" fill="#88f332"/>
    <path id="Pfad_322" data-name="Pfad 322" d="M698.988,99.147a3.148,3.148,0,1,1-3.148,3.148,3.148,3.148,0,0,1,3.148-3.148" transform="translate(580 2059)" fill="#88f332"/>
    <path id="Pfad_323" data-name="Pfad 323" d="M625.64,118.8a3.148,3.148,0,1,1-1.152,4.3,3.149,3.149,0,0,1,1.152-4.3" transform="translate(580 2059)" fill="#88f332"/>
    <path id="Pfad_324" data-name="Pfad 324" d="M692.26,80.337a3.148,3.148,0,1,1-1.152,4.3,3.15,3.15,0,0,1,1.152-4.3" transform="translate(580 2059)" fill="#88f332"/>
    <path id="Pfad_325" data-name="Pfad 325" d="M638.566,134.031a3.148,3.148,0,1,1,1.152,4.3,3.148,3.148,0,0,1-1.152-4.3" transform="translate(580 2059)" fill="#88f332"/>
    <path id="Pfad_326" data-name="Pfad 326" d="M677.029,67.411a3.148,3.148,0,1,1,1.152,4.3,3.148,3.148,0,0,1-1.152-4.3" transform="translate(580 2059)" fill="#88f332"/>
    <path id="Pfad_327" data-name="Pfad 327" d="M662.76,74.987a2.236,2.236,0,1,1-2.235-2.235,2.235,2.235,0,0,1,2.235,2.235" transform="translate(580 2059)" fill="#88f332"/>
    <path id="Pfad_328" data-name="Pfad 328" d="M662.76,129.6a2.236,2.236,0,1,1-2.235-2.235,2.235,2.235,0,0,1,2.235,2.235" transform="translate(580 2059)" fill="#88f332"/>
    <path id="Pfad_329" data-name="Pfad 329" d="M648.806,77.528a2.235,2.235,0,1,1-3.054-.818,2.236,2.236,0,0,1,3.054.818" transform="translate(580 2059)" fill="#88f332"/>
    <path id="Pfad_330" data-name="Pfad 330" d="M676.115,124.828a2.235,2.235,0,1,1-3.054-.818,2.236,2.236,0,0,1,3.054.818" transform="translate(580 2059)" fill="#88f332"/>
    <path id="Pfad_331" data-name="Pfad 331" d="M637.992,86.705a2.235,2.235,0,1,1-3.054.818,2.236,2.236,0,0,1,3.054-.818" transform="translate(580 2059)" fill="#88f332"/>
    <path id="Pfad_332" data-name="Pfad 332" d="M685.292,114.014a2.235,2.235,0,1,1-3.054.818,2.236,2.236,0,0,1,3.054-.818" transform="translate(580 2059)" fill="#88f332"/>
    <path id="Pfad_333" data-name="Pfad 333" d="M633.216,100.06a2.236,2.236,0,1,1-2.235,2.235,2.235,2.235,0,0,1,2.235-2.235" transform="translate(580 2059)" fill="#88f332"/>
    <path id="Pfad_334" data-name="Pfad 334" d="M687.833,100.06a2.236,2.236,0,1,1-2.235,2.235,2.235,2.235,0,0,1,2.235-2.235" transform="translate(580 2059)" fill="#88f332"/>
    <path id="Pfad_335" data-name="Pfad 335" d="M635.757,114.014a2.235,2.235,0,1,1-.818,3.054,2.236,2.236,0,0,1,.818-3.054" transform="translate(580 2059)" fill="#88f332"/>
    <path id="Pfad_336" data-name="Pfad 336" d="M683.057,86.705a2.235,2.235,0,1,1-.818,3.054,2.236,2.236,0,0,1,.818-3.054" transform="translate(580 2059)" fill="#88f332"/>
    <path id="Pfad_337" data-name="Pfad 337" d="M644.934,124.828a2.235,2.235,0,1,1,.818,3.054,2.235,2.235,0,0,1-.818-3.054" transform="translate(580 2059)" fill="#88f332"/>
    <path id="Pfad_338" data-name="Pfad 338" d="M672.243,77.528a2.235,2.235,0,1,1,.818,3.054,2.235,2.235,0,0,1-.818-3.054" transform="translate(580 2059)" fill="#88f332"/>
    <path id="Pfad_339" data-name="Pfad 339" d="M662.05,83.661a1.525,1.525,0,1,1-1.525-1.525,1.525,1.525,0,0,1,1.525,1.525" transform="translate(580 2059)" fill="#88f332"/>
    <path id="Pfad_340" data-name="Pfad 340" d="M662.05,120.93a1.525,1.525,0,1,1-1.525-1.525,1.525,1.525,0,0,1,1.525,1.525" transform="translate(580 2059)" fill="#88f332"/>
    <path id="Pfad_341" data-name="Pfad 341" d="M652.528,85.395a1.525,1.525,0,1,1-2.084-.558,1.526,1.526,0,0,1,2.084.558" transform="translate(580 2059)" fill="#88f332"/>
    <path id="Pfad_342" data-name="Pfad 342" d="M671.162,117.67a1.525,1.525,0,1,1-2.084-.558,1.526,1.526,0,0,1,2.084.558" transform="translate(580 2059)" fill="#88f332"/>
    <path id="Pfad_343" data-name="Pfad 343" d="M645.15,91.658a1.525,1.525,0,1,1-2.084.557,1.525,1.525,0,0,1,2.084-.557" transform="translate(580 2059)" fill="#88f332"/>
    <path id="Pfad_344" data-name="Pfad 344" d="M677.425,110.292a1.525,1.525,0,1,1-2.084.558,1.524,1.524,0,0,1,2.084-.558" transform="translate(580 2059)" fill="#88f332"/>
    <path id="Pfad_345" data-name="Pfad 345" d="M641.89,100.77a1.526,1.526,0,1,1-1.525,1.525,1.525,1.525,0,0,1,1.525-1.525" transform="translate(580 2059)" fill="#88f332"/>
    <path id="Pfad_346" data-name="Pfad 346" d="M679.159,100.77a1.526,1.526,0,1,1-1.526,1.525,1.526,1.526,0,0,1,1.526-1.525" transform="translate(580 2059)" fill="#88f332"/>
    <path id="Pfad_347" data-name="Pfad 347" d="M643.624,110.292a1.525,1.525,0,1,1-.558,2.084,1.526,1.526,0,0,1,.558-2.084" transform="translate(580 2059)" fill="#88f332"/>
    <path id="Pfad_348" data-name="Pfad 348" d="M675.9,91.658a1.525,1.525,0,1,1-.558,2.084,1.527,1.527,0,0,1,.558-2.084" transform="translate(580 2059)" fill="#88f332"/>
    <path id="Pfad_349" data-name="Pfad 349" d="M649.886,117.67a1.526,1.526,0,1,1,.558,2.084,1.524,1.524,0,0,1-.558-2.084" transform="translate(580 2059)" fill="#88f332"/>
    <path id="Pfad_350" data-name="Pfad 350" d="M668.521,85.395a1.525,1.525,0,1,1,.557,2.084,1.524,1.524,0,0,1-.557-2.084" transform="translate(580 2059)" fill="#88f332"/>
    <path id="Pfad_351" data-name="Pfad 351" d="M661.514,90.209a.99.99,0,1,1-.989-.989.989.989,0,0,1,.989.989" transform="translate(580 2059)" fill="#88f332"/>
    <path id="Pfad_352" data-name="Pfad 352" d="M661.514,114.382a.99.99,0,1,1-.989-.989.989.989,0,0,1,.989.989" transform="translate(580 2059)" fill="#88f332"/>
    <path id="Pfad_353" data-name="Pfad 353" d="M655.338,91.333a.989.989,0,1,1-1.352-.362.991.991,0,0,1,1.352.362" transform="translate(580 2059)" fill="#88f332"/>
    <path id="Pfad_354" data-name="Pfad 354" d="M667.425,112.268a.989.989,0,1,1-1.352-.362.99.99,0,0,1,1.352.362" transform="translate(580 2059)" fill="#88f332"/>
    <path id="Pfad_355" data-name="Pfad 355" d="M650.552,95.395a.989.989,0,1,1-1.352.362.99.99,0,0,1,1.352-.362" transform="translate(580 2059)" fill="#88f332"/>
    <path id="Pfad_356" data-name="Pfad 356" d="M671.487,107.482a.99.99,0,1,1-1.352.362.99.99,0,0,1,1.352-.362" transform="translate(580 2059)" fill="#88f332"/>
    <path id="Pfad_357" data-name="Pfad 357" d="M648.438,101.306a.99.99,0,1,1-.989.989.989.989,0,0,1,.989-.989" transform="translate(580 2059)" fill="#88f332"/>
    <path id="Pfad_358" data-name="Pfad 358" d="M672.611,101.306a.99.99,0,1,1-.989.989.989.989,0,0,1,.989-.989" transform="translate(580 2059)" fill="#88f332"/>
    <path id="Pfad_359" data-name="Pfad 359" d="M649.562,107.482a.989.989,0,1,1-.362,1.352.99.99,0,0,1,.362-1.352" transform="translate(580 2059)" fill="#88f332"/>
    <path id="Pfad_360" data-name="Pfad 360" d="M670.5,95.395a.989.989,0,1,1-.362,1.352.99.99,0,0,1,.362-1.352" transform="translate(580 2059)" fill="#88f332"/>
    <path id="Pfad_361" data-name="Pfad 361" d="M653.624,112.268a.989.989,0,1,1,.362,1.352.99.99,0,0,1-.362-1.352" transform="translate(580 2059)" fill="#88f332"/>
    <path id="Pfad_362" data-name="Pfad 362" d="M665.711,91.333a.989.989,0,1,1,.362,1.352.99.99,0,0,1-.362-1.352" transform="translate(580 2059)" fill="#88f332"/>
  </g>
</svg>
